<svg width="326" height="240" viewBox="0 0 326 240" fill="none" xmlns="http://www.w3.org/2000/svg">
<path d="M144.237 10.5853C149.957 10.5844 135.53 55.113 135.53 55.113C136.446 60.9157 137.545 67.8167 138.77 75.4408L169.306 64.7929C166.404 48.3359 186.914 33.4281 203.167 47.3673L292.174 3.80762C321.197 -11.6797 339.579 24.1361 313.458 38.657L213.809 73.5038C210.907 89.9597 192.525 97.7037 178.013 85.1197L142.853 100.609C149.01 138.226 156.465 182.195 160.684 202.248C166.876 231.675 146.495 239.677 135.53 240H28.1418C-0.49505 240 -1.8495 214.832 1.05289 202.248L28.1418 55.113C28.1418 55.113 10.7275 10.5855 19.4347 10.5853C28.1418 10.5851 63.9379 10.5853 63.9379 10.5853C76.3215 35.3659 91.6719 20.9106 97.7991 10.5853C97.7991 10.5853 138.518 10.5861 144.237 10.5853Z" fill="url(#paint0_linear)"/>
<defs>
<linearGradient id="paint0_linear" x1="162.926" y1="-2.09365" x2="166.01" y2="237.903" gradientUnits="userSpaceOnUse">
<stop stop-color="#249678"/>
<stop offset="1" stop-color="#1C755E"/>
</linearGradient>
</defs>
</svg>
